<?xml version="1.0" standalone="no"?>
<!DOCTYPE svg PUBLIC "-//W3C//DTD SVG 20010904//EN"
 "http://www.w3.org/TR/2001/REC-SVG-20010904/DTD/svg10.dtd">
<svg version="1.0" xmlns="http://www.w3.org/2000/svg"
 width="472.000000pt" height="472.000000pt" viewBox="0 0 472.000000 472.000000"
 preserveAspectRatio="xMidYMid meet">
<metadata>
Created by potrace 1.14, written by Peter Selinger 2001-2017
</metadata>
<g transform="translate(0.000000,472.000000) scale(0.100000,-0.100000)"
fill="#000000" stroke="none">
<path d="M2299 4356 c-2 -2 -40 -6 -84 -9 -130 -10 -277 -41 -425 -89 -65 -21
-291 -117 -300 -127 -3 -3 -21 -15 -40 -25 -43 -23 -195 -123 -212 -139 -7 -7
-33 -28 -58 -48 -97 -78 -216 -203 -303 -319 -31 -41 -60 -79 -65 -85 -22 -28
-106 -182 -145 -265 -121 -260 -177 -536 -172 -840 5 -259 71 -546 174 -758
17 -34 31 -64 31 -67 0 -13 113 -191 172 -271 96 -131 216 -250 396 -396 8 -6
57 -38 110 -71 328 -206 657 -298 1047 -292 99 2 196 6 215 9 19 4 62 12 95
18 33 5 70 12 81 14 148 28 399 128 554 222 197 120 414 313 535 477 33 44 62
82 65 85 18 17 125 211 163 295 55 125 114 307 131 410 29 170 34 234 31 405
-6 300 -64 544 -192 806 -55 112 -180 304 -251 385 -74 86 -222 228 -282 272
-30 23 -56 44 -58 49 -2 4 -9 8 -17 8 -7 0 -18 7 -25 15 -30 36 -264 158 -402
210 -102 38 -265 82 -333 91 -22 3 -63 9 -91 15 -51 10 -337 23 -345 15z m299
-230 c9 -3 40 -8 67 -12 60 -7 237 -54 318 -83 154 -57 403 -202 498 -291 8
-8 38 -36 65 -61 67 -63 133 -136 169 -184 16 -22 32 -42 35 -45 14 -12 110
-171 142 -235 68 -134 135 -340 153 -465 4 -25 11 -65 15 -90 5 -25 9 -117 8
-205 -1 -218 -31 -386 -105 -585 -169 -454 -541 -820 -998 -984 -87 -31 -252
-72 -325 -81 -30 -4 -58 -9 -62 -12 -10 -6 -355 -6 -365 0 -7 4 -29 8 -128 22
-11 1 -40 8 -65 15 -25 7 -57 14 -72 17 -15 2 -55 15 -89 29 -35 13 -66 24
-70 24 -13 0 -202 92 -254 124 -284 173 -502 412 -645 706 -20 41 -42 91 -49
110 -14 39 -23 62 -40 103 -15 37 -48 171 -56 232 -4 28 -9 61 -11 75 -12 81
-18 266 -10 335 13 118 19 159 32 225 18 87 62 231 75 245 5 5 9 15 9 22 0 14
86 196 110 233 120 182 156 228 269 340 87 86 212 190 230 190 5 0 11 4 13 8
5 12 117 78 206 122 70 34 237 96 280 105 10 1 37 8 61 15 62 16 144 30 226
37 39 3 71 7 73 8 5 5 273 -4 290 -9z"/>
<path d="M2389 4085 c-2 -2 -45 -6 -94 -9 -130 -8 -149 -12 -355 -61 -144 -35
-387 -158 -535 -273 -72 -55 -251 -233 -285 -282 -13 -19 -27 -37 -30 -40 -33
-28 -172 -280 -209 -380 -26 -71 -71 -227 -77 -265 -3 -16 -10 -61 -16 -100
-14 -91 -14 -337 1 -445 75 -531 419 -1002 902 -1233 339 -162 742 -204 1099
-112 134 34 329 113 415 167 11 7 44 28 75 47 30 18 57 36 60 40 3 3 30 25 62
48 115 86 239 219 333 359 188 278 279 576 279 909 0 209 -19 334 -80 512 -84
250 -218 464 -402 644 -284 279 -647 441 -1038 465 -49 3 -91 7 -95 9 -3 3 -8
3 -10 0z m161 -439 c54 -13 131 -60 166 -99 47 -55 63 -96 68 -172 6 -75 -4
-123 -43 -206 -27 -60 -44 -114 -46 -149 0 -8 8 -46 18 -84 22 -83 17 -110
-23 -131 -69 -36 -266 -5 -331 52 -15 12 -25 11 -78 -7 -72 -24 -83 -24 -120
-5 -32 16 -49 51 -55 112 -3 23 -9 50 -14 60 -6 10 -12 34 -13 53 -3 27 -11
38 -34 50 -49 24 -45 61 17 140 25 32 26 39 17 84 -32 172 136 318 361 311 47
-1 96 -5 110 -9z m-1092 -1191 c3 -2 5 -71 6 -154 1 -130 3 -148 16 -140 66
41 89 51 142 64 68 16 122 5 178 -35 107 -76 160 -273 115 -428 -27 -93 -74
-147 -163 -189 -43 -20 -68 -25 -140 -25 -48 0 -100 5 -115 11 -37 14 -37 14
-37 -9 0 -20 -6 -23 -60 -23 -115 0 -123 7 -126 109 -9 270 -11 792 -3 806 6
12 25 18 62 20 56 3 119 0 125 -7z m1275 -4 c17 -16 8 -454 -9 -483 -12 -20
-16 -281 -5 -343 7 -37 8 -72 4 -76 -13 -13 -146 -21 -162 -11 -8 6 -13 27
-13 51 0 23 -2 40 -6 38 -4 -2 -42 -21 -86 -42 -187 -90 -352 -41 -407 123
-65 195 53 439 231 478 78 16 141 6 250 -40 14 -6 16 13 15 151 l0 157 45 4
c25 1 50 5 55 6 15 6 79 -4 88 -13z m600 -266 c71 -35 131 -85 164 -138 28
-45 24 -54 -32 -63 -22 -3 -60 -10 -85 -14 -44 -8 -46 -8 -80 29 -63 69 -131
68 -169 0 -30 -53 -32 -156 -4 -214 20 -43 73 -85 101 -80 9 2 22 4 28 4 20 2
74 61 74 82 0 20 4 21 67 14 95 -10 139 -26 135 -50 -13 -77 -111 -192 -198
-232 -65 -29 -116 -34 -193 -18 -71 15 -107 34 -153 82 -101 105 -122 293 -49
448 37 80 80 128 144 160 70 36 165 32 250 -10z m-1652 -852 c-1 -4 -10 -9
-21 -9 -34 -2 -37 -4 -37 -17 0 -9 9 -12 24 -9 13 2 23 0 23 -6 0 -6 -10 -12
-22 -14 -34 -5 -28 -23 10 -26 45 -5 40 -17 -8 -18 l-40 -1 0 53 c0 52 0 53
33 56 36 4 39 3 38 -9z m209 -3 c0 -4 -7 -11 -16 -14 -8 -3 -12 -2 -9 4 3 5
-4 8 -16 7 -27 -2 -45 -43 -28 -64 8 -9 24 -12 48 -8 33 4 35 4 17 -10 -26
-19 -45 -19 -68 2 -24 22 -23 68 2 86 20 14 70 12 70 -3z m295 -1 c3 -4 -6 -7
-19 -6 -14 1 -25 -2 -25 -8 -1 -5 5 -10 12 -10 21 0 45 -27 40 -45 -5 -20 -43
-33 -67 -24 -27 10 -17 24 13 18 16 -4 32 -1 35 5 7 11 -7 20 -41 25 -24 4
-30 36 -9 52 17 12 52 8 61 -7z m203 -2 c33 -26 -1 -100 -43 -92 -11 2 -23 4
-27 4 -10 1 -14 101 -3 104 14 5 58 -4 73 -16z m352 1 c0 -5 -8 -8 -17 -7 -32
3 -43 -1 -43 -15 0 -9 7 -12 19 -9 10 3 22 0 25 -6 5 -7 -3 -11 -18 -11 -21 0
-26 -5 -26 -27 0 -14 -3 -23 -7 -19 -14 14 -9 101 6 107 20 8 61 -1 61 -13z
m145 -27 c-2 -62 -37 -89 -77 -58 -19 14 -28 89 -12 94 6 2 11 -9 11 -24 1
-59 2 -63 28 -63 14 0 26 6 27 13 0 6 2 17 3 22 2 6 3 23 4 38 0 16 5 26 9 23
5 -3 8 -23 7 -45z m133 31 c1 -5 -5 -9 -15 -8 -19 1 -20 -2 -22 -61 -1 -25 -4
-33 -10 -25 -4 7 -7 28 -6 47 2 26 -2 34 -17 38 -11 3 -18 9 -15 14 7 12 80 8
85 -5z m279 -10 c4 -8 1 -23 -5 -33 -9 -14 -8 -21 3 -33 9 -9 11 -17 6 -21 -6
-3 -18 6 -27 20 -21 33 -44 32 -44 -1 0 -14 -4 -23 -10 -19 -5 3 -10 28 -10
55 0 38 4 49 18 52 29 6 63 -4 69 -20z m-1791 -27 l-3 -45 35 0 c45 0 32 -15
-14 -16 l-34 -1 0 54 c0 29 4 53 10 53 5 0 8 -20 6 -45z m471 23 l23 -22 20
22 c12 12 24 22 28 22 10 0 8 -98 -2 -107 -6 -7 -10 19 -6 52 2 20 2 20 -19 1
-18 -17 -21 -17 -36 -2 -21 21 -23 20 -20 -8 2 -13 -1 -29 -6 -37 -6 -10 -9
-7 -10 11 0 14 -1 40 -2 58 -2 38 0 39 30 10z m493 0 c-5 -60 -1 -69 28 -66
22 2 27 8 29 33 2 53 3 55 11 55 10 0 13 -24 6 -66 -3 -24 -11 -34 -29 -38
-44 -11 -65 9 -65 59 0 25 5 45 11 45 6 0 10 -10 9 -22z m640 -63 c22 0 25 5
28 43 2 23 7 42 13 42 15 0 10 -77 -7 -94 -35 -35 -84 -7 -84 48 0 50 14 53
20 4 4 -38 8 -43 30 -43z"/>
<path d="M2374 3609 c-104 -13 -193 -71 -236 -153 -17 -32 -19 -49 -13 -90 12
-81 9 -92 -29 -142 -20 -26 -35 -52 -33 -58 2 -6 17 -13 32 -16 27 -5 29 -8
30 -55 0 -27 6 -60 13 -72 7 -12 12 -36 12 -53 0 -51 26 -90 60 -90 55 0 195
75 285 154 34 29 53 33 61 11 7 -17 -27 -51 -109 -110 -31 -22 -57 -43 -57
-46 -1 -21 175 -61 234 -53 59 7 66 17 49 67 -35 101 -28 173 29 294 29 60 33
78 33 153 0 72 -4 92 -24 127 -56 98 -188 149 -337 132z m116 -133 c0 -19 -71
-218 -82 -231 -5 -6 -11 -6 -17 0 -6 6 6 56 30 125 21 63 39 116 39 118 1 10
30 -1 30 -12z m-140 -34 c0 -10 -14 -31 -30 -47 l-30 -29 35 -36 c27 -28 32
-39 23 -48 -9 -9 -21 -3 -55 30 -24 23 -43 47 -43 52 0 12 81 96 92 96 4 0 8
-8 8 -18z m236 -27 l46 -45 -29 -33 c-15 -18 -38 -41 -51 -51 -37 -28 -39 6
-3 43 17 18 31 35 31 40 0 4 -13 20 -30 34 -30 27 -35 38 -23 50 9 10 8 11 59
-38z"/>
<path d="M1311 2433 l-24 -5 6 -430 c4 -237 9 -433 12 -436 2 -3 33 -5 67 -6
59 -1 63 1 66 23 4 25 -1 25 92 1 55 -14 162 -7 213 15 56 23 119 93 142 156
28 77 26 204 -5 283 -44 115 -140 186 -235 173 -46 -7 -118 -38 -143 -63 -21
-21 -50 -35 -56 -26 -2 4 -5 68 -5 142 -1 185 2 175 -57 176 -27 1 -60 0 -73
-3z m372 -446 c42 -18 58 -39 59 -76 1 -42 -43 -96 -102 -126 -49 -25 -153
-47 -178 -38 -10 4 -12 33 -10 122 l3 116 30 6 c54 12 165 9 198 -4z"/>
<path d="M1504 1970 c-10 -4 -21 -6 -24 -5 -3 2 -5 -40 -4 -93 l1 -97 30 -3
c38 -4 130 31 166 63 31 28 50 70 42 95 -3 10 -20 24 -37 31 -34 14 -143 20
-174 9z"/>
<path d="M2585 2432 c-20 -3 -21 -8 -17 -153 2 -82 2 -155 -1 -163 -4 -10 -19
-7 -65 16 -69 34 -156 46 -217 29 -157 -42 -261 -239 -220 -417 27 -119 105
-179 227 -177 58 1 81 7 164 46 54 25 101 44 106 41 4 -3 8 -25 8 -50 0 -24 5
-45 10 -45 6 -1 21 -1 35 -1 14 0 39 0 56 1 l30 1 -7 58 c-9 67 -8 238 1 319
4 32 10 92 15 133 8 79 11 337 3 356 -4 11 -76 14 -128 6z m-87 -423 c47 -9
52 -13 53 -37 0 -15 2 -69 3 -120 l3 -93 -46 -20 c-209 -92 -376 -55 -374 84
1 72 41 130 115 168 69 35 130 40 246 18z"/>
<path d="M2311 1989 c-111 -33 -176 -133 -139 -213 14 -31 82 -66 129 -66 40
0 122 21 185 47 l44 18 0 101 0 102 -37 9 c-52 13 -141 14 -182 2z"/>
<path d="M3127 2186 c-124 -37 -217 -210 -204 -381 12 -167 114 -272 274 -281
79 -4 149 24 217 86 41 38 102 137 91 148 -3 3 -34 11 -71 17 -49 10 -68 10
-74 1 -6 -6 -21 -25 -35 -42 -65 -82 -166 -66 -221 36 -29 54 -27 192 4 241
29 47 41 57 81 64 42 7 112 -25 131 -60 11 -20 19 -25 39 -21 38 8 104 18 118
19 18 1 -16 54 -57 89 -86 71 -212 108 -293 84z"/>
<path d="M2337 1322 c-2 -4 -4 -22 -6 -39 -2 -27 1 -33 18 -33 23 0 44 31 35
53 -6 16 -42 30 -47 19z"/>
<path d="M3230 1311 c0 -13 6 -18 18 -16 9 2 24 4 32 4 20 1 -4 24 -30 28 -14
2 -20 -3 -20 -16z"/>
</g>
</svg>
